<?xml version="1.0" standalone="no"?>
<!DOCTYPE svg PUBLIC "-//W3C//DTD SVG 20010904//EN"
 "http://www.w3.org/TR/2001/REC-SVG-20010904/DTD/svg10.dtd">
<svg version="1.0" xmlns="http://www.w3.org/2000/svg"
 width="869.000000pt" height="869.000000pt" viewBox="0 0 869.000000 869.000000"
 preserveAspectRatio="xMidYMid meet">
<metadata>
Created by potrace 1.14, written by Peter Selinger 2001-2017
</metadata>
<g transform="translate(0.000000,869.000000) scale(0.100000,-0.100000)"
fill="#000000" stroke="none">
<path d="M3939 8656 c-2 -2 -47 -7 -99 -10 -52 -4 -106 -8 -120 -10 -14 -3
-47 -7 -75 -11 -75 -9 -117 -15 -145 -21 -14 -2 -38 -7 -55 -9 -16 -3 -50 -10
-75 -15 -25 -5 -56 -12 -70 -14 -14 -3 -63 -15 -110 -26 -47 -12 -94 -23 -106
-26 -52 -10 -352 -112 -469 -159 -523 -212 -962 -503 -1394 -926 -49 -48 -187
-200 -253 -279 -263 -316 -514 -736 -658 -1105 -23 -60 -48 -123 -55 -140 -8
-16 -17 -43 -21 -60 -4 -16 -9 -34 -13 -40 -3 -5 -6 -14 -8 -20 -1 -5 -14 -48
-28 -95 -30 -98 -81 -299 -90 -350 -3 -19 -10 -53 -15 -75 -5 -22 -11 -58 -14
-80 -4 -23 -8 -52 -11 -65 -2 -13 -7 -44 -10 -69 -3 -25 -7 -55 -9 -66 -2 -11
-7 -56 -10 -100 -4 -44 -9 -102 -12 -130 -7 -71 -7 -424 0 -520 14 -200 36
-380 63 -510 2 -11 8 -42 13 -70 69 -382 261 -894 467 -1243 24 -41 43 -75 43
-78 0 -19 278 -412 349 -494 12 -14 41 -47 64 -74 126 -147 277 -300 422 -425
55 -47 102 -89 105 -92 16 -18 243 -184 350 -254 141 -94 284 -175 475 -271
72 -36 164 -86 205 -111 112 -68 320 -175 445 -228 61 -26 124 -52 140 -60 17
-7 53 -20 80 -30 28 -9 59 -21 70 -26 38 -16 295 -92 355 -104 8 -2 44 -10 80
-19 84 -20 261 -53 325 -61 28 -3 64 -8 80 -10 129 -18 304 -29 475 -28 145 0
370 9 415 17 11 2 49 7 85 11 36 4 106 13 155 22 50 8 104 17 120 20 74 11
402 96 515 134 222 74 514 201 690 301 786 443 1381 1096 1745 1914 101 227
220 598 260 814 27 144 45 256 50 310 4 36 8 70 10 77 24 74 24 727 1 849 -2
10 -7 48 -11 84 -3 36 -8 72 -10 80 -3 8 -7 35 -10 59 -28 231 -147 647 -267
930 -158 377 -343 679 -640 1047 -40 50 -115 149 -165 220 -51 71 -132 176
-180 234 -93 112 -358 382 -457 465 -33 28 -64 55 -70 60 -9 8 -94 75 -151
118 -5 4 -23 19 -40 32 -16 14 -33 25 -37 25 -4 0 -13 6 -20 13 -21 22 -235
159 -351 226 -122 70 -370 192 -492 240 -44 18 -89 36 -100 41 -57 26 -316
109 -410 132 -22 5 -47 11 -55 14 -142 36 -421 87 -555 100 -38 4 -83 9 -100
11 -37 6 -601 14 -606 9z m1021 -1671 c46 -7 240 -39 295 -50 113 -22 407
-115 480 -152 134 -69 448 -350 590 -528 21 -28 42 -52 45 -55 19 -18 170
-236 170 -246 0 -4 6 -15 14 -23 13 -15 32 -50 105 -184 98 -181 201 -482 250
-727 19 -93 20 -101 26 -159 4 -31 8 -63 10 -71 20 -79 21 -513 1 -615 -2 -12
-7 -48 -11 -80 -17 -143 -109 -503 -154 -600 -5 -11 -27 -60 -47 -110 -40 -94
-121 -255 -158 -315 -203 -318 -385 -533 -601 -708 -38 -31 -79 -65 -90 -75
-49 -44 -224 -156 -230 -147 -4 6 -8 22 -11 35 -2 14 -14 65 -25 113 -12 48
-22 94 -24 102 -2 8 -15 65 -30 125 -14 61 -39 169 -55 240 -16 72 -44 189
-60 260 -17 72 -34 141 -36 155 -8 37 -73 319 -84 365 -6 22 -12 49 -15 60 -2
11 -20 91 -40 178 -20 87 -34 161 -31 165 4 3 12 7 19 9 28 6 230 52 337 77
63 15 124 29 135 32 249 55 395 92 395 99 0 3 -13 60 -29 127 -16 68 -44 184
-61 258 -17 74 -42 182 -56 240 -13 58 -35 152 -48 210 -28 117 -11 96 -194
245 -61 49 -109 92 -107 96 3 3 24 10 47 14 66 12 78 14 137 29 31 8 69 17 85
20 26 6 28 10 21 39 -3 18 -9 43 -11 57 -6 30 -69 300 -90 385 -8 33 -16 69
-19 80 -2 11 -13 58 -23 105 -11 47 -30 130 -42 185 l-23 100 -180 270 c-98
149 -182 269 -186 268 -3 0 -19 -3 -36 -6 -16 -3 -70 -15 -120 -27 -49 -12
-97 -23 -105 -25 -8 -2 -54 -13 -102 -24 -47 -11 -101 -23 -119 -26 -18 -3
-35 -8 -39 -10 -3 -2 -17 -6 -31 -8 -13 -3 -125 -29 -249 -57 -124 -29 -301
-70 -395 -92 -93 -21 -177 -41 -185 -43 -8 -2 -76 -17 -150 -35 -74 -17 -145
-33 -157 -36 -26 -5 -411 -94 -553 -128 -58 -14 -116 -27 -130 -30 -21 -4
-143 -31 -230 -52 -22 -5 -21 -1 15 31 159 147 479 345 725 450 142 61 389
142 483 159 15 2 35 7 45 10 37 11 251 45 327 51 44 4 82 9 84 11 6 5 482 -4
531 -11z m-2625 -1161 c6 -30 74 -325 84 -369 35 -144 53 -221 71 -305 12 -52
27 -113 33 -134 l12 -40 270 -118 c266 -117 271 -118 315 -108 25 6 55 12 68
15 13 2 32 7 42 10 10 3 27 8 37 10 10 2 40 8 67 15 27 6 52 7 56 3 6 -7 60
-224 74 -298 2 -11 9 -40 16 -65 7 -25 14 -56 17 -70 2 -14 24 -110 49 -215
24 -104 46 -201 49 -215 3 -14 9 -40 14 -57 5 -18 8 -33 5 -33 -3 0 0 -8 5
-17 5 -10 12 -34 15 -53 8 -49 12 -66 29 -135 9 -33 18 -71 21 -85 2 -14 17
-77 32 -140 14 -63 30 -133 35 -155 5 -22 13 -57 18 -78 10 -40 7 -44 -30 -50
-13 -3 -44 -10 -69 -17 -25 -7 -53 -14 -63 -16 -10 -2 -27 -6 -37 -9 -10 -3
-27 -7 -37 -9 -10 -2 -47 -12 -83 -21 -36 -9 -72 -19 -80 -21 -57 -14 -107
-26 -120 -29 -92 -21 -237 -60 -243 -65 -4 -4 -3 -29 3 -56 7 -27 13 -56 15
-64 6 -29 67 -286 87 -370 11 -47 22 -95 24 -107 2 -12 16 -71 30 -130 14 -60
28 -117 30 -128 2 -11 15 -66 28 -122 13 -57 21 -103 19 -103 -12 0 -232 94
-301 129 -258 130 -503 304 -697 497 -112 110 -165 197 -268 434 -65 150 -156
425 -172 520 -3 19 -8 43 -11 52 -3 9 -7 27 -9 40 -3 13 -7 34 -10 48 -2 14
-7 43 -10 65 -3 23 -7 50 -9 61 -27 138 -28 614 -2 751 2 10 7 41 10 68 45
336 195 747 392 1071 60 99 165 247 170 241 3 -2 6 -13 9 -23z"/>
</g>
</svg>
